<?xml version="1.0" encoding="UTF-8"?>
<svg id="Layer_1" data-name="Layer 1" xmlns="http://www.w3.org/2000/svg" viewBox="0 0 1920 1080">
  <defs>
    <style>
      .cls-1 {
        fill: #fff;
      }
    </style>
  </defs>
  <g>
    <path class="cls-1" d="m207.12,561.39c-13.28,0-24.05,10.77-24.05,24.05s10.77,24.05,24.05,24.05,24.05-10.77,24.05-24.05-10.77-24.05-24.05-24.05Z"/>
    <circle class="cls-1" cx="340.64" cy="585.44" r="24.05"/>
    <circle class="cls-1" cx="340.64" cy="451.93" r="24.05"/>
    <circle class="cls-1" cx="207.12" cy="451.93" r="24.05" transform="translate(-69.72 39.01) rotate(-9.22)"/>
    <path class="cls-1" d="m407.44,518.72l27.59-27.67c36.44-36.44,36.85-95.27,1.28-132.19-36.7-38.14-98.85-37.23-136.27.19l-26.14,26.14-27.63-27.63c-36.85-36.85-96.62-36.85-133.48,0-18.46,18.43-27.68,42.55-27.68,66.72s9.21,48.33,27.64,66.76l27.64,27.62-18.92,18.92-8.76,8.76c-18.39,18.43-27.6,42.59-27.6,66.76s9.21,48.33,27.64,66.76c36.85,36.85,96.62,36.85,133.48,0l27.69-27.67,27.59,27.59c36.85,36.85,96.62,36.85,133.48,0,18.46-18.43,27.68-42.55,27.68-66.72,0-24.17-9.21-48.33-27.64-66.76l-27.59-27.57Zm14.87,111.85c-.72,2.42-1.66,4.76-2.83,7.02l-37.83-37.83-26.7,26.7,37.65,37.65c-21.03,9.97-46.97,6.38-64.34-11.03l-51.62-51.62c-.58-.58-1.29-.93-2.03-1.07-1.19-.24-2.48.1-3.41,1.03l-17.22,17.26-6.76,6.76-27.64,27.68s.01.01.02.02l-.02.02c-17.41,17.41-43.35,20.99-64.38,10.99l29.34-29.34h0s8.32-8.32,8.32-8.32l-2.49-2.49c-.07-.08-.13-.17-.21-.25l-21.3-21.26s-.03-.02-.04-.04l-2.68-2.68-8.32,8.32h0s-29.55,29.55-29.55,29.55c-1.13-2.23-2.08-4.57-2.79-6.99-6.42-21.33-.79-42.86,13.97-57.62l27.67-27.67h0s23.9-23.89,23.9-23.89c1.51-1.51,1.51-3.93,0-5.44l-51.58-51.69c-14.76-14.76-20.39-36.25-13.97-57.58.72-2.42,1.66-4.76,2.83-7.02l37.83,37.83,26.7-26.7-37.65-37.65c21.03-9.97,46.97-6.38,64.34,11.03l51.62,51.62c1.33,1.33,3.38,1.49,4.86.48.22-.14.43-.31.62-.5l50.45-50.45c17.56-17.56,44.1-22.16,65.55-12.16l-37.78,37.82,26.76,26.63,37.75-37.75c10.01,21.03,6.34,47.01-11.03,64.42l-27.64,27.64-.04-.04-23.9,23.9c-1.51,1.51-1.51,3.93,0,5.44l51.58,51.69c14.76,14.76,20.39,36.25,13.97,57.58Z"/>
  </g>
  <g>
    <path class="cls-1" d="m540.71,267.53c0-59.39,43.15-93.96,91.64-93.96,37.12,0,69.6,20.65,81.89,55.68l-26.91,10.9c-9.51-23.43-29-38.97-55.45-38.97-33.87,0-60.55,25.75-60.55,67.74,0,46.63,33.18,65.65,63.1,65.65s50.57-18.1,59.39-46.86l26.91,9.28c-13.69,42.69-45.7,65.19-87,65.19-54.05,0-93.03-38.05-93.03-94.65Z"/>
    <path class="cls-1" d="m736.47,172.64h27.37v185.59h-27.37v-185.59Z"/>
    <path class="cls-1" d="m805.97,169.86c9.98,0,17.63,8.12,17.63,17.63,0,10.21-7.66,18.33-17.63,18.33s-18.1-8.12-18.1-18.33c0-9.51,7.66-17.63,18.1-17.63Zm-13.92,59.39h27.37v128.99h-27.37v-128.99Z"/>
    <path class="cls-1" d="m847.76,229.25h26.91v20.65h.46c9.74-16.94,25.29-24.36,41.76-24.36,23.43,0,45.7,15.08,45.7,51.5v81.2h-27.61v-69.13c0-21.34-7.89-37.58-27.61-37.58-18.56,0-32.25,14.38-32.25,38.51v68.21h-27.37v-128.99Z"/>
    <path class="cls-1" d="m1003.77,169.86c9.98,0,17.63,8.12,17.63,17.63,0,10.21-7.66,18.33-17.63,18.33s-18.1-8.12-18.1-18.33c0-9.51,7.66-17.63,18.1-17.63Zm-13.92,59.39h27.37v128.99h-27.37v-128.99Z"/>
    <path class="cls-1" d="m1037,293.97c0-41.76,28.07-68.44,65.65-68.44,26.22,0,49.42,13.45,58.93,39.21l-25.98,10.44c-5.57-16.01-18.33-23.66-33.17-23.66-22.27,0-36.66,18.33-36.66,42.22,0,25.98,16.47,42.45,37.82,42.45,16.7,0,29.7-9.98,36.19-26.21l25.52,9.98c-9.28,26.68-32.71,42.22-61.94,42.22-38.05,0-66.35-26.45-66.35-68.21Z"/>
    <path class="cls-1" d="m1176.7,325.76c0-24.36,19.95-34.1,43.15-38.97,27.38-5.8,38.98-6.73,38.98-18.79,0-10.9-9.28-19.95-24.13-19.95-12.99,0-23.66,7.42-28.07,22.5l-25.75-8.81c7.89-26.22,31.09-36.19,55.21-36.19,29.23,0,50.81,14.61,50.81,45.01v47.33c0,21.34,1.62,30.16,4.18,40.37h-27.61c-1.86-6.5-2.55-12.53-2.55-19.95h-.46c-7.19,14.38-22.27,23.9-41.06,23.9-22.04,0-42.69-11.83-42.69-36.42Zm50.11,15.08c19.95,0,32.25-17.63,32.25-32.01v-12.53c-6.73,3.48-16.7,6.26-26.68,8.35-11.6,2.55-25.52,7.66-25.52,20.18,0,10.21,8.12,16.01,19.95,16.01Z"/>
    <path class="cls-1" d="m1314.39,172.64h27.37v185.59h-27.37v-185.59Z"/>
    <path class="cls-1" d="m551.15,427.71h67.97c18.1,0,61.71,9.28,61.71,56.84,0,33.41-19.95,50.57-42.45,54.98v.23l46.17,68.9h-32.94l-44.31-66.81h-26.91v66.81h-29.23v-180.95Zm63.1,88.16c16.94,0,35.96-7.66,35.96-30.62s-19.26-31.09-36.19-31.09h-33.64v61.71h33.87Z"/>
    <path class="cls-1" d="m692.67,544.64c0-39.67,26.68-68.67,64.26-68.67,29.93,0,61.25,18.79,61.25,67.51v8.12h-97.67c2.09,22.97,18.1,36.42,38.28,36.42,16.01,0,28.54-9.51,34.57-24.36l25.75,10.21c-8.82,22.74-31.09,38.74-60.32,38.74-37.81,0-66.12-26.91-66.12-67.97Zm97.67-12.76c-1.86-23.43-17.63-32.25-33.64-32.25-19.02,0-31.55,13.22-34.8,32.25h68.44Z"/>
    <path class="cls-1" d="m831.15,576.42l25.52-8.35c6.03,15.08,18.56,21.81,29.7,21.81,8.58,0,20.42-3.71,20.42-15.54,0-10.9-10.67-14.15-20.65-17.17l-13.46-3.94c-14.85-4.41-35.5-13.69-35.5-38.05s21.34-39.21,46.86-39.21,42.69,13.92,48.25,32.25l-25.52,8.35c-3.48-9.51-10.9-18.1-23.9-18.1-10.44,0-18.1,5.8-18.1,14.62,0,11.6,13.92,16.01,24.82,19.02l10.67,3.02c12.76,3.71,35.73,10.44,35.73,36.42,0,24.36-19.49,41.06-49.42,41.06-28.3,0-48.95-14.62-55.45-36.19Z"/>
    <path class="cls-1" d="m947.72,544.64c0-39.67,26.68-68.67,64.26-68.67,29.93,0,61.25,18.79,61.25,67.51v8.12h-97.67c2.09,22.97,18.1,36.42,38.28,36.42,16.01,0,28.54-9.51,34.57-24.36l25.75,10.21c-8.82,22.74-31.09,38.74-60.32,38.74-37.82,0-66.12-26.91-66.12-67.97Zm97.67-12.76c-1.86-23.43-17.63-32.25-33.64-32.25-19.02,0-31.55,13.22-34.8,32.25h68.44Z"/>
    <path class="cls-1" d="m1087.46,576.19c0-24.36,19.95-34.1,43.15-38.97,27.37-5.8,38.97-6.73,38.97-18.79,0-10.9-9.28-19.95-24.13-19.95-12.99,0-23.66,7.42-28.07,22.5l-25.75-8.81c7.89-26.22,31.09-36.19,55.21-36.19,29.23,0,50.81,14.61,50.81,45.01v47.33c0,21.34,1.62,30.16,4.18,40.37h-27.61c-1.86-6.5-2.55-12.53-2.55-19.95h-.46c-7.19,14.38-22.27,23.9-41.06,23.9-22.04,0-42.69-11.83-42.69-36.42Zm50.11,15.08c19.95,0,32.25-17.63,32.25-32.02v-12.53c-6.73,3.48-16.7,6.26-26.68,8.35-11.6,2.55-25.52,7.66-25.52,20.18,0,10.21,8.12,16.01,19.95,16.01Z"/>
    <path class="cls-1" d="m1225.26,479.68h26.91v21.81h.93c6.5-14.15,20.18-25.52,38.05-25.52,4.18,0,8.35.46,12.99,2.32v30.62c-4.87-1.86-11.6-2.55-15.78-2.55-29.23,0-35.73,27.61-35.73,48.72v53.59h-27.37v-128.99Z"/>
    <path class="cls-1" d="m1310.98,544.41c0-41.76,28.07-68.44,65.65-68.44,26.22,0,49.42,13.45,58.93,39.21l-25.98,10.44c-5.57-16.01-18.33-23.66-33.17-23.66-22.27,0-36.65,18.33-36.65,42.22,0,25.98,16.47,42.46,37.81,42.46,16.7,0,29.7-9.98,36.19-26.22l25.52,9.98c-9.28,26.68-32.71,42.22-61.94,42.22-38.05,0-66.35-26.45-66.35-68.21Z"/>
    <path class="cls-1" d="m1455.84,423.08h27.37v77.25h.46c9.74-16.94,24.82-24.36,41.29-24.36,23.43,0,45.7,15.08,45.7,51.5v81.2h-27.61v-69.13c0-21.34-7.89-37.58-27.61-37.58-18.56,0-32.25,14.62-32.25,38.51v68.21h-27.37v-185.59Z"/>
    <path class="cls-1" d="m554.86,678.15h63.57c32.71,0,59.39,19.02,59.39,53.59,0,36.89-27.84,55.45-55.68,55.45h-50.57v71.92h-16.7v-180.95Zm62.17,93.49c26.22,0,43.38-13.46,43.38-38.98s-18.79-39.44-45.01-39.44h-43.85v78.41h45.47Z"/>
    <path class="cls-1" d="m698.54,673.51h15.54v82.12h.46c10.21-19.95,26.45-28.3,44.54-28.3,22.74,0,46.86,12.76,46.86,51.5v80.27h-15.54v-73.31c0-32.01-16.47-44.08-35.26-44.08-26.22,0-41.06,23.43-41.06,45.94v71.45h-15.54v-185.59Z"/>
    <path class="cls-1" d="m846.04,672.58c7.19,0,12.76,5.8,12.76,12.76,0,7.42-5.57,13.22-12.76,13.22-7.66,0-13.22-5.8-13.22-13.22,0-6.96,5.57-12.76,13.22-12.76Zm-8.12,58.46h15.54v128.06h-15.54v-128.06Z"/>
    <path class="cls-1" d="m886.78,673.51h15.54v185.59h-15.54v-185.59Z"/>
    <path class="cls-1" d="m927.15,829.64c0-24.13,21.81-34.1,46.17-39.21,23.66-4.87,40.6-5.34,40.6-21.81,0-14.38-12.76-27.84-32.48-27.84-17.17,0-29.69,10.44-34.8,26.91l-15.08-5.34c7.66-24.59,29.7-35.03,51.04-35.03,23.2,0,47.56,12.3,47.56,42.69v48.95c0,21.34,1.62,30.16,4.18,40.14h-15.78c-2.32-9.05-3.02-16.7-3.02-26.68h-.46c-8.12,17.4-23.9,30.62-47.33,30.62-21.81,0-40.6-10.9-40.6-33.41Zm43.38,20.65c26.91,0,43.61-25.29,43.61-42.45v-17.4c-7.19,5.57-13.22,7.66-30.39,10.9-14.85,2.78-39.67,8.12-39.67,27.61,0,12.99,10.21,21.34,26.45,21.34Z"/>
    <path class="cls-1" d="m1053.86,795.31c0-40.83,26.22-67.97,59.62-67.97,20.18,0,37.81,10.21,48.02,29.23h.46v-83.05h15.54v145.46c0,21.58,1.62,30.16,4.18,40.14h-15.78c-2.32-9.28-3.25-17.17-3.02-25.75h-.46c-10.44,19.49-29,29.7-49.18,29.7-34.33,0-59.39-28.07-59.39-67.74Zm61.71,53.36c25.52,0,46.63-22.04,46.63-53.59s-21.11-53.36-46.63-53.36-45.24,22.74-45.24,53.59,19.25,53.36,45.24,53.36Z"/>
    <path class="cls-1" d="m1202.67,795.31c0-39.9,26.21-67.97,62.87-67.97,24.36,0,58.46,12.99,58.46,64.26v7.19h-104.63c.7,30.85,20.18,49.88,47.09,49.88,22.04,0,37.35-14.38,44.54-32.25l14.85,5.33c-9.74,26.22-32.48,41.29-60.09,41.29-36.19,0-63.1-27.14-63.1-67.74Zm104.4-12.3c-.7-30.39-22.5-40.83-41.99-40.83-24.36,0-41.29,16.93-44.77,40.83h86.77Z"/>
    <path class="cls-1" d="m1350.54,673.51h15.54v185.59h-15.54v-185.59Z"/>
    <path class="cls-1" d="m1399.03,731.04h15.08v26.91h.46c11.14-20.65,29.46-30.62,49.42-30.62,33.87,0,58.93,28.3,58.93,67.74s-26.22,67.97-59.39,67.97c-21.58,0-39.44-11.37-48.95-29.93v77.02h-15.54v-179.1Zm61.94,117.62c26.22,0,45.24-22.73,45.24-53.59s-19.25-53.36-45.24-53.36-46.4,21.81-46.4,53.59,21.11,53.36,46.4,53.36Z"/>
    <path class="cls-1" d="m1548.55,673.51h15.54v82.12h.46c10.21-19.95,26.45-28.3,44.54-28.3,22.74,0,46.86,12.76,46.86,51.5v80.27h-15.54v-73.31c0-32.01-16.47-44.08-35.26-44.08-26.22,0-41.06,23.43-41.06,45.94v71.45h-15.54v-185.59Z"/>
    <path class="cls-1" d="m1696.05,672.58c7.19,0,12.76,5.8,12.76,12.76,0,7.42-5.57,13.22-12.76,13.22-7.66,0-13.22-5.8-13.22-13.22,0-6.96,5.57-12.76,13.22-12.76Zm-8.12,58.46h15.54v128.06h-15.54v-128.06Z"/>
    <path class="cls-1" d="m1727.69,829.64c0-24.13,21.81-34.1,46.17-39.21,23.66-4.87,40.6-5.34,40.6-21.81,0-14.38-12.76-27.84-32.48-27.84-17.17,0-29.7,10.44-34.8,26.91l-15.08-5.34c7.66-24.59,29.7-35.03,51.04-35.03,23.2,0,47.56,12.3,47.56,42.69v48.95c0,21.34,1.62,30.16,4.18,40.14h-15.78c-2.32-9.05-3.02-16.7-3.02-26.68h-.46c-8.12,17.4-23.9,30.62-47.33,30.62-21.81,0-40.6-10.9-40.6-33.41Zm43.38,20.65c26.91,0,43.62-25.29,43.62-42.45v-17.4c-7.19,5.57-13.22,7.66-30.39,10.9-14.85,2.78-39.67,8.12-39.67,27.61,0,12.99,10.21,21.34,26.45,21.34Z"/>
  </g>
</svg>