<?xml version="1.0" encoding="UTF-8"?>
<svg id="Layer_1" data-name="Layer 1" xmlns="http://www.w3.org/2000/svg" viewBox="0 0 1920 1920">
  <defs></defs>
  <path fill="#1843AD" d="m971.99,1338.54c-6.74-6.74-17.62-6.74-24.36,0l-236.2,236.72c-79.66,79.66-198.36,96.07-294.61,50.28l134.27-134.27.02.02,38.07-38.07-11.41-11.41c-.32-.38-.58-.79-.94-1.15l-97.45-97.28c-.06-.06-.14-.1-.2-.16l-12.28-12.28-38.07,38.07.02.02-135.22,135.22c-5.18-10.19-9.5-20.91-12.79-31.97-29.37-97.63-3.63-196.12,63.93-263.68l126.61-126.61,109.25-109.25c6.91-6.91,6.91-18.14,0-25.05l-109.72-109.72-35.59,35.6-86.22,86.22-86.57,86.57-40.09,40.09c-84.15,84.32-126.31,194.91-126.31,305.49s42.16,221.17,126.48,305.49c168.64,168.64,442.17,168.64,610.81,0l248.82-248.65-110.24-110.24Z"></path>
  <g>
    <g>
      <circle fill="#1843AD" cx="654.4" cy="1265.45" r="110.07" transform="translate(-703.14 833.37) rotate(-45)"></circle>
      <circle fill="#FF9933" cx="1265.39" cy="1265.45" r="110.07" transform="translate(-524.19 1265.41) rotate(-45)"></circle>
      <g>
        <path fill="#A2DCEB" d="m1697.36,833.48c166.74-166.74,168.64-435.95,5.88-604.94-167.95-174.52-452.36-170.37-623.6.86l-241.73,241.73,109.72,109.72c6.91,6.91,17.97,6.91,24.88,0l230.85-230.85c80.35-80.35,201.82-101.43,299.96-55.64l-172.9,173.08,122.48,121.85,172.76-172.76c45.79,96.24,29.03,215.12-50.45,294.78l-236.2,236.2c-3.97,6.39-6.22,18.14.69,24.88l109.72,109.72,247.95-248.65Z"></path>
        <circle fill="#A2DCEB" cx="1265.39" cy="654.46" r="110.07"></circle>
      </g>
      <circle fill="#072061" cx="654.4" cy="654.46" r="110.07"></circle>
    </g>
    <g>
      <path fill="#072061" d="m470.9,837.97l-35.59,35.6-86.22,86.22-126.48-126.4c-84.32-84.32-126.48-194.91-126.48-305.49s42.16-221,126.66-305.32c168.64-168.64,442.17-168.64,610.81,0l126.48,126.48,4.31-4.33c67.35-67.53,176.72-67.61,244.16-.17h0s-126.48,126.66-126.48,126.66l-109.72,109.72c-6.74,6.91-17.97,6.91-24.88,0l-236.2-236.2c-79.48-79.66-198.19-96.07-294.43-50.45l172.27,172.27-122.16,122.16-173.14-173.14c-5.36,10.37-9.68,21.08-12.96,32.14-29.37,97.63-3.63,195.94,63.93,263.51l126.14,126.74Z"></path>
      <path fill="#FF9933" d="m1086.38,1697.08c168.64,168.64,442.17,168.64,610.81,0,84.49-84.32,126.66-194.73,126.66-305.32,0-110.59-42.16-221.17-126.48-305.49l-248.82-248.65-109.38,109.38c-6.91,6.91-6.91,17.97,0,24.88l236.03,236.55c67.56,67.56,93.31,165.88,63.93,263.51-3.28,11.06-7.6,21.77-12.96,32.14l-173.14-173.14-122.16,122.16,172.27,172.27c-96.24,45.62-214.95,29.2-294.43-50.46l-236.2-236.2c-6.91-6.91-18.14-6.91-24.88,0l-109.72,109.72-126.48,126.66h0c67.44,67.44,176.81,67.37,244.16-.17l4.31-4.33,126.48,126.48Z"></path>
    </g>
  </g>
</svg>