<?xml version="1.0" encoding="UTF-8"?>
<svg id="Layer_1" data-name="Layer 1" xmlns="http://www.w3.org/2000/svg" viewBox="0 0 1920 1920">
  <defs></defs>
  <g>
    <path fill="#072061" d="m237.93,455.66c0-206.78,148.75-331.83,321.21-331.83,126.68,0,243.56,68.66,286.06,192.89l-80.92,32.69c-35.14-87.45-111.15-143.03-205.96-143.03-125.87,0-228.04,95.63-228.04,252.55,0,172.46,122.6,246.83,237.03,246.83s190.44-72.74,220.68-174.91l80.91,28.61c-45.77,143.03-154.47,228.85-304.86,228.85-190.44,0-326.11-134.86-326.11-332.65Z"></path>
    <path fill="#072061" d="m1166.38,136.9h233.76c80.92,0,214.95,44.14,214.95,196.97,0,114.43-70.29,178.99-155.29,192.07v.82c55.58,82.55,111.16,165.1,165.92,247.65h-98.9l-161.01-241.93h-111.98v241.93h-87.45V136.9Zm220.68,317.94c71.11,0,135.68-34.33,135.68-118.51s-67.84-119.33-138.13-119.33h-130.77v237.84h133.23Z"></path>
    <path fill="#FF9933" d="m277.16,1148.79h233.76c85.82,0,214.95,44.14,214.95,195.34s-132.4,202.69-206.78,202.69h-154.47v239.48h-87.45v-637.51Zm220.68,313.85c71.11,0,135.68-31.87,135.68-116.87s-67.84-116.06-138.13-116.06h-130.77v232.94h133.23Z"></path>
  </g>
  <g>
    <path fill="#1843AD" d="m1346.26,1604.85c-2.66-2.66-6.95-2.66-9.6,0l-93.11,93.32c-31.4,31.4-78.19,37.87-116.13,19.82l52.93-52.93h0s15.01-15,15.01-15l-4.5-4.5c-.13-.15-.23-.31-.37-.45l-38.42-38.35s-.05-.04-.08-.06l-4.84-4.84-15.01,15.01h0s-53.3,53.31-53.3,53.31c-2.04-4.02-3.75-8.24-5.04-12.6-11.58-38.48-1.43-77.31,25.2-103.94l49.91-49.91,43.06-43.06c2.72-2.72,2.72-7.15,0-9.88l-43.25-43.25-14.03,14.03-33.99,33.99-34.13,34.13-15.8,15.8c-33.17,33.24-49.79,76.83-49.79,120.42s16.62,87.18,49.86,120.42c66.48,66.48,174.3,66.48,240.78,0l98.08-98.02-43.46-43.46Z"></path>
    <g>
      <g>
        <circle fill="#1843AD" cx="1221.07" cy="1576.03" r="43.39"></circle>
        <circle fill="#FF9933" cx="1461.92" cy="1576.04" r="43.39" transform="translate(-327.94 2766.62) rotate(-80.78)"></circle>
        <g>
          <path fill="#A2DCEB" d="m1632.2,1405.75c65.73-65.73,66.48-171.85,2.32-238.46-66.21-68.79-178.32-67.16-245.82.34l-95.29,95.29,43.25,43.25c2.72,2.72,7.08,2.72,9.81,0l91-91c31.67-31.67,79.56-39.98,118.24-21.93l-68.16,68.23,48.28,48.03,68.1-68.1c18.05,37.94,11.44,84.8-19.89,116.2l-93.11,93.11c-1.57,2.52-2.45,7.15.27,9.81l43.25,43.25,97.74-98.02Z"></path>
          <circle fill="#A2DCEB" cx="1461.92" cy="1335.19" r="43.39"></circle>
        </g>
        <circle fill="#072061" cx="1221.07" cy="1335.19" r="43.39"></circle>
      </g>
      <g>
        <path fill="#072061" d="m1148.73,1407.52l-14.03,14.03-33.99,33.99-49.86-49.82c-33.24-33.24-49.86-76.83-49.86-120.42s16.62-87.12,49.93-120.36c66.48-66.48,174.3-66.48,240.78,0l49.86,49.86,1.7-1.71c26.55-26.62,69.66-26.65,96.25-.07h0s-49.86,49.93-49.86,49.93l-43.25,43.25c-2.66,2.72-7.08,2.72-9.81,0l-93.11-93.11c-31.33-31.4-78.13-37.87-116.07-19.89l67.91,67.91-48.16,48.16-68.25-68.25c-2.11,4.09-3.81,8.31-5.11,12.67-11.58,38.48-1.43,77.24,25.2,103.87l49.72,49.96Z"></path>
        <path fill="#FF9933" d="m1391.35,1746.18c66.48,66.48,174.3,66.48,240.78,0,33.31-33.24,49.93-76.76,49.93-120.36s-16.62-87.19-49.86-120.42l-98.08-98.02-43.12,43.12c-2.72,2.72-2.72,7.08,0,9.81l93.04,93.25c26.63,26.63,36.78,65.39,25.2,103.87-1.29,4.36-3,8.58-5.11,12.67l-68.25-68.25-48.16,48.16,67.91,67.91c-37.94,17.98-84.73,11.51-116.07-19.89l-93.11-93.11c-2.72-2.72-7.15-2.72-9.81,0l-43.25,43.25-49.86,49.93h0c26.59,26.59,69.7,26.56,96.25-.07l1.7-1.71,49.86,49.86Z"></path>
      </g>
    </g>
  </g>
</svg>