<?xml version="1.0" encoding="UTF-8"?>
<svg id="Layer_1" data-name="Layer 1" xmlns="http://www.w3.org/2000/svg" viewBox="0 0 1920 1080">
  <defs></defs>
  <g>
    <path fill="#1843AD" d="m298.56,599.43c-1.43-1.43-3.73-1.43-5.15,0l-49.95,50.06c-16.85,16.85-41.95,20.32-62.3,10.63l28.4-28.4h0s8.05-8.05,8.05-8.05l-2.41-2.41c-.07-.08-.12-.17-.2-.24l-20.61-20.57s-.03-.02-.04-.03l-2.6-2.6-8.05,8.05h0s-28.6,28.6-28.6,28.6c-1.1-2.16-2.01-4.42-2.7-6.76-6.21-20.65-.77-41.47,13.52-55.76l26.78-26.78,23.1-23.1c1.46-1.46,1.46-3.84,0-5.3l-23.2-23.2-7.53,7.53-18.23,18.23-18.31,18.31-8.48,8.48c-17.8,17.83-26.71,41.22-26.71,64.61s8.92,46.77,26.75,64.61c35.66,35.66,93.51,35.66,129.17,0l52.62-52.58-23.31-23.31Z"></path>
    <g>
      <g>
        <circle fill="#1843AD" cx="231.4" cy="583.98" r="23.28"></circle>
        <circle fill="#FF9933" cx="360.61" cy="583.98" r="23.28" transform="translate(-273.59 846.39) rotate(-80.78)"></circle>
        <g>
          <path fill="#A2DCEB" d="m451.96,492.62c35.26-35.26,35.66-92.19,1.24-127.93-35.52-36.91-95.67-36.03-131.88.18l-51.12,51.12,23.2,23.2c1.46,1.46,3.8,1.46,5.26,0l48.82-48.82c16.99-16.99,42.68-21.45,63.44-11.77l-36.57,36.6,25.9,25.77,36.54-36.54c9.68,20.35,6.14,45.49-10.67,62.34l-49.95,49.95c-.84,1.35-1.32,3.84.15,5.26l23.2,23.2,52.44-52.58Z"></path>
          <circle fill="#A2DCEB" cx="360.61" cy="454.77" r="23.28"></circle>
        </g>
        <circle fill="#072061" cx="231.4" cy="454.77" r="23.28"></circle>
      </g>
      <g>
        <path fill="#072061" d="m192.59,493.57l-7.53,7.53-18.23,18.23-26.75-26.73c-17.83-17.83-26.75-41.22-26.75-64.61s8.92-46.74,26.78-64.57c35.66-35.66,93.51-35.66,129.17,0l26.75,26.75.91-.91c14.24-14.28,37.37-14.3,51.63-.04h0s-26.75,26.78-26.75,26.78l-23.2,23.2c-1.43,1.46-3.8,1.46-5.26,0l-49.95-49.95c-16.81-16.85-41.91-20.32-62.27-10.67l36.43,36.43-25.83,25.83-36.61-36.61c-1.13,2.19-2.05,4.46-2.74,6.8-6.21,20.65-.77,41.44,13.52,55.73l26.68,26.8Z"></path>
        <path fill="#FF9933" d="m322.75,675.26c35.66,35.66,93.51,35.66,129.17,0,17.87-17.83,26.78-41.18,26.78-64.57,0-23.39-8.92-46.77-26.75-64.61l-52.62-52.58-23.13,23.13c-1.46,1.46-1.46,3.8,0,5.26l49.92,50.03c14.29,14.29,19.73,35.08,13.52,55.73-.69,2.34-1.61,4.6-2.74,6.8l-36.61-36.61-25.83,25.83,36.43,36.43c-20.35,9.65-45.46,6.18-62.27-10.67l-49.95-49.95c-1.46-1.46-3.84-1.46-5.26,0l-23.2,23.2-26.75,26.78h0c14.26,14.26,37.39,14.25,51.63-.04l.91-.91,26.75,26.75Z"></path>
      </g>
    </g>
  </g>
  <g>
    <path fill="#072061" d="m554.23,276.31c0-57.48,41.76-90.93,88.68-90.93,35.92,0,67.35,19.98,79.25,53.88l-26.04,10.55c-9.21-22.68-28.06-37.72-53.66-37.72-32.78,0-58.6,24.92-58.6,65.56,0,45.13,32.11,63.54,61.07,63.54s48.94-17.51,57.48-45.35l26.04,8.98c-13.25,41.31-44.23,63.09-84.19,63.09-52.31,0-90.03-36.82-90.03-91.6Z"></path>
    <path fill="#072061" d="m743.68,184.49h26.49v179.61h-26.49v-179.61Z"></path>
    <path fill="#072061" d="m810.94,181.79c9.65,0,17.06,7.86,17.06,17.06,0,9.88-7.41,17.74-17.06,17.74s-17.51-7.86-17.51-17.74c0-9.2,7.41-17.06,17.51-17.06Zm-13.47,57.48h26.49v124.83h-26.49v-124.83Z"></path>
    <path fill="#072061" d="m851.38,239.27h26.04v19.98h.45c9.43-16.39,24.47-23.57,40.41-23.57,22.68,0,44.23,14.59,44.23,49.84v78.58h-26.72v-66.91c0-20.65-7.63-36.37-26.72-36.37-17.96,0-31.21,13.92-31.21,37.27v66.01h-26.49v-124.83Z"></path>
    <path fill="#072061" d="m1002.36,181.79c9.65,0,17.06,7.86,17.06,17.06,0,9.88-7.41,17.74-17.06,17.74s-17.51-7.86-17.51-17.74c0-9.2,7.41-17.06,17.51-17.06Zm-13.47,57.48h26.49v124.83h-26.49v-124.83Z"></path>
    <path fill="#072061" d="m1034.51,301.91c0-40.41,27.17-66.23,63.54-66.23,25.37,0,47.82,13.02,57.03,37.94l-25.15,10.1c-5.39-15.49-17.74-22.9-32.11-22.9-21.55,0-35.47,17.74-35.47,40.86,0,25.15,15.94,41.09,36.6,41.09,16.17,0,28.74-9.65,35.02-25.37l24.7,9.65c-8.98,25.82-31.66,40.86-59.95,40.86-36.82,0-64.21-25.59-64.21-66.01Z"></path>
    <path fill="#072061" d="m1169.72,332.67c0-23.57,19.31-33,41.76-37.72,26.49-5.61,37.72-6.51,37.72-18.19,0-10.55-8.98-19.31-23.35-19.31-12.57,0-22.9,7.18-27.17,21.78l-24.92-8.53c7.63-25.37,30.09-35.02,53.43-35.02,28.29,0,49.17,14.14,49.17,43.56v45.8c0,20.65,1.57,29.19,4.04,39.07h-26.72c-1.8-6.29-2.47-12.12-2.47-19.31h-.45c-6.96,13.92-21.55,23.12-39.74,23.12-21.33,0-41.31-11.45-41.31-35.25Zm48.5,14.59c19.31,0,31.21-17.06,31.21-30.98v-12.12c-6.51,3.37-16.17,6.06-25.82,8.08-11.23,2.47-24.7,7.41-24.7,19.53,0,9.88,7.86,15.49,19.31,15.49Z"></path>
    <path fill="#072061" d="m1302.97,184.49h26.49v179.61h-26.49v-179.61Z"></path>
    <path fill="#072061" d="m564.33,431.33h65.78c17.51,0,59.72,8.98,59.72,55.01,0,32.33-19.31,48.94-41.09,53.21v.22l44.68,66.68h-31.88l-42.88-64.66h-26.04v64.66h-28.29v-175.12Zm61.07,85.32c16.39,0,34.8-7.41,34.8-29.64s-18.63-30.08-35.02-30.08h-32.55v59.72h32.78Z"></path>
    <path fill="#072061" d="m701.29,544.49c0-38.39,25.82-66.46,62.19-66.46,28.96,0,59.27,18.19,59.27,65.33v7.86h-94.52c2.02,22.23,17.51,35.25,37.04,35.25,15.49,0,27.62-9.2,33.45-23.57l24.92,9.88c-8.53,22-30.08,37.49-58.37,37.49-36.6,0-63.99-26.04-63.99-65.78Zm94.52-12.35c-1.8-22.68-17.06-31.21-32.55-31.21-18.41,0-30.53,12.8-33.68,31.21h66.23Z"></path>
    <path fill="#072061" d="m835.3,575.25l24.7-8.08c5.84,14.59,17.96,21.11,28.74,21.11,8.31,0,19.76-3.59,19.76-15.04,0-10.55-10.33-13.69-19.98-16.61l-13.02-3.82c-14.37-4.27-34.35-13.25-34.35-36.82s20.65-37.94,45.35-37.94,41.31,13.47,46.7,31.21l-24.7,8.08c-3.37-9.2-10.55-17.51-23.12-17.51-10.1,0-17.51,5.61-17.51,14.14,0,11.23,13.47,15.49,24.02,18.41l10.33,2.92c12.35,3.59,34.58,10.1,34.58,35.25,0,23.57-18.86,39.74-47.82,39.74-27.39,0-47.37-14.14-53.66-35.02Z"></path>
    <path fill="#072061" d="m948.12,544.49c0-38.39,25.82-66.46,62.19-66.46,28.96,0,59.27,18.19,59.27,65.33v7.86h-94.52c2.02,22.23,17.51,35.25,37.04,35.25,15.49,0,27.62-9.2,33.45-23.57l24.92,9.88c-8.53,22-30.08,37.49-58.37,37.49-36.6,0-63.99-26.04-63.99-65.78Zm94.52-12.35c-1.8-22.68-17.06-31.21-32.56-31.21-18.41,0-30.53,12.8-33.68,31.21h66.23Z"></path>
    <path fill="#072061" d="m1083.35,575.02c0-23.57,19.31-33,41.76-37.72,26.49-5.61,37.72-6.51,37.72-18.19,0-10.55-8.98-19.31-23.35-19.31-12.57,0-22.9,7.18-27.17,21.78l-24.92-8.53c7.63-25.37,30.08-35.02,53.43-35.02,28.29,0,49.17,14.14,49.17,43.56v45.8c0,20.66,1.57,29.19,4.04,39.07h-26.72c-1.8-6.29-2.47-12.12-2.47-19.31h-.45c-6.96,13.92-21.55,23.12-39.74,23.12-21.33,0-41.31-11.45-41.31-35.25Zm48.5,14.59c19.31,0,31.21-17.06,31.21-30.98v-12.12c-6.51,3.37-16.16,6.06-25.82,8.08-11.23,2.47-24.7,7.41-24.7,19.53,0,9.88,7.86,15.49,19.31,15.49Z"></path>
    <path fill="#072061" d="m1216.71,481.63h26.04v21.1h.9c6.29-13.7,19.53-24.7,36.82-24.7,4.04,0,8.08.45,12.57,2.24v29.64c-4.71-1.8-11.22-2.47-15.27-2.47-28.29,0-34.58,26.72-34.58,47.15v51.86h-26.49v-124.83Z"></path>
    <path fill="#072061" d="m1299.67,544.26c0-40.41,27.17-66.23,63.54-66.23,25.37,0,47.82,13.02,57.03,37.94l-25.15,10.1c-5.39-15.49-17.74-22.9-32.11-22.9-21.55,0-35.47,17.74-35.47,40.86,0,25.15,15.94,41.09,36.59,41.09,16.17,0,28.74-9.65,35.03-25.37l24.7,9.65c-8.98,25.82-31.66,40.86-59.95,40.86-36.82,0-64.21-25.59-64.21-66.01Z"></path>
    <path fill="#072061" d="m1439.86,426.84h26.49v74.76h.45c9.43-16.39,24.02-23.57,39.96-23.57,22.68,0,44.23,14.59,44.23,49.84v78.58h-26.72v-66.9c0-20.66-7.63-36.37-26.72-36.37-17.96,0-31.21,14.14-31.21,37.27v66.01h-26.49v-179.61Z"></path>
    <path fill="#FF9933" d="m567.92,673.69h61.52c31.66,0,57.48,18.41,57.48,51.86,0,35.7-26.94,53.66-53.88,53.66h-48.94v69.6h-16.17v-175.12Zm60.17,90.48c25.37,0,41.98-13.02,41.98-37.72s-18.19-38.17-43.56-38.17h-42.43v75.89h44Z"></path>
    <path fill="#FF9933" d="m706.97,669.2h15.04v79.48h.45c9.88-19.31,25.59-27.39,43.11-27.39,22,0,45.35,12.35,45.35,49.84v77.68h-15.04v-70.95c0-30.98-15.94-42.66-34.13-42.66-25.37,0-39.74,22.68-39.74,44.45v69.15h-15.04v-179.61Z"></path>
    <path fill="#FF9933" d="m849.71,668.31c6.96,0,12.35,5.61,12.35,12.35,0,7.19-5.39,12.8-12.35,12.8-7.41,0-12.8-5.61-12.8-12.8,0-6.73,5.39-12.35,12.8-12.35Zm-7.86,56.58h15.04v123.93h-15.04v-123.93Z"></path>
    <path fill="#FF9933" d="m889.14,669.2h15.04v179.61h-15.04v-179.61Z"></path>
    <path fill="#FF9933" d="m928.21,820.3c0-23.35,21.1-33,44.68-37.94,22.9-4.72,39.29-5.16,39.29-21.1,0-13.92-12.35-26.94-31.43-26.94-16.61,0-28.74,10.1-33.68,26.04l-14.59-5.16c7.41-23.8,28.74-33.9,49.39-33.9,22.45,0,46.03,11.9,46.03,41.31v47.37c0,20.66,1.57,29.19,4.04,38.84h-15.27c-2.25-8.76-2.92-16.17-2.92-25.82h-.45c-7.86,16.84-23.13,29.64-45.8,29.64-21.1,0-39.29-10.55-39.29-32.33Zm41.98,19.98c26.04,0,42.21-24.47,42.21-41.09v-16.84c-6.96,5.39-12.8,7.41-29.41,10.55-14.37,2.69-38.39,7.86-38.39,26.72,0,12.57,9.88,20.65,25.59,20.65Z"></path>
    <path fill="#FF9933" d="m1050.84,787.07c0-39.51,25.37-65.78,57.7-65.78,19.53,0,36.59,9.88,46.47,28.29h.45v-80.37h15.04v140.77c0,20.88,1.57,29.19,4.04,38.84h-15.27c-2.24-8.98-3.14-16.61-2.92-24.92h-.45c-10.1,18.86-28.06,28.74-47.6,28.74-33.23,0-57.48-27.17-57.48-65.56Zm59.72,51.64c24.7,0,45.13-21.33,45.13-51.86s-20.43-51.64-45.13-51.64-43.78,22-43.78,51.86,18.63,51.64,43.78,51.64Z"></path>
    <path fill="#FF9933" d="m1194.84,787.07c0-38.62,25.37-65.78,60.84-65.78,23.57,0,56.58,12.57,56.58,62.19v6.96h-101.26c.67,29.86,19.53,48.27,45.58,48.27,21.33,0,36.15-13.92,43.11-31.21l14.37,5.16c-9.43,25.37-31.43,39.96-58.15,39.96-35.02,0-61.07-26.27-61.07-65.56Zm101.03-11.9c-.67-29.41-21.78-39.51-40.64-39.51-23.57,0-39.96,16.39-43.33,39.51h83.97Z"></path>
    <path fill="#FF9933" d="m1337.95,669.2h15.04v179.61h-15.04v-179.61Z"></path>
    <path fill="#FF9933" d="m1384.87,724.88h14.59v26.04h.45c10.78-19.98,28.51-29.64,47.82-29.64,32.78,0,57.03,27.39,57.03,65.56s-25.37,65.78-57.48,65.78c-20.88,0-38.17-11-47.37-28.96v74.54h-15.04v-173.32Zm59.95,113.83c25.37,0,43.78-22,43.78-51.86s-18.63-51.64-43.78-51.64-44.9,21.11-44.9,51.86,20.43,51.64,44.9,51.64Z"></path>
    <path fill="#FF9933" d="m1529.57,669.2h15.04v79.48h.45c9.88-19.31,25.59-27.39,43.11-27.39,22,0,45.35,12.35,45.35,49.84v77.68h-15.04v-70.95c0-30.98-15.94-42.66-34.13-42.66-25.37,0-39.74,22.68-39.74,44.45v69.15h-15.04v-179.61Z"></path>
    <path fill="#FF9933" d="m1672.32,668.31c6.96,0,12.35,5.61,12.35,12.35,0,7.19-5.39,12.8-12.35,12.8-7.41,0-12.8-5.61-12.8-12.8,0-6.73,5.39-12.35,12.8-12.35Zm-7.86,56.58h15.04v123.93h-15.04v-123.93Z"></path>
    <path fill="#FF9933" d="m1702.94,820.3c0-23.35,21.1-33,44.68-37.94,22.9-4.72,39.29-5.16,39.29-21.1,0-13.92-12.35-26.94-31.43-26.94-16.61,0-28.74,10.1-33.68,26.04l-14.59-5.16c7.41-23.8,28.74-33.9,49.39-33.9,22.45,0,46.03,11.9,46.03,41.31v47.37c0,20.66,1.57,29.19,4.04,38.84h-15.27c-2.24-8.76-2.92-16.17-2.92-25.82h-.45c-7.86,16.84-23.12,29.64-45.8,29.64-21.1,0-39.29-10.55-39.29-32.33Zm41.98,19.98c26.04,0,42.21-24.47,42.21-41.09v-16.84c-6.96,5.39-12.8,7.41-29.41,10.55-14.37,2.69-38.39,7.86-38.39,26.72,0,12.57,9.88,20.65,25.59,20.65Z"></path>
  </g>
</svg>