<?xml version="1.0" encoding="UTF-8"?>
<svg id="Layer_1" data-name="Layer 1" xmlns="http://www.w3.org/2000/svg" viewBox="0 0 1920 400">
  <defs></defs>
  <g>
    <path fill="#072061" d="m270.21,199.85c0-29,21.07-45.88,44.74-45.88,18.12,0,33.98,10.08,39.99,27.19l-13.14,5.32c-4.64-11.44-14.16-19.03-27.07-19.03-16.54,0-29.56,12.57-29.56,33.08,0,22.77,16.2,32.06,30.81,32.06s24.69-8.84,29-22.88l13.14,4.53c-6.68,20.84-22.32,31.83-42.48,31.83-26.39,0-45.42-18.58-45.42-46.22Z"></path>
    <path fill="#072061" d="m365.8,153.52h13.37v90.62h-13.37v-90.62Z"></path>
    <path fill="#072061" d="m399.74,152.16c4.87,0,8.61,3.96,8.61,8.61,0,4.98-3.74,8.95-8.61,8.95s-8.84-3.96-8.84-8.95c0-4.64,3.74-8.61,8.84-8.61Zm-6.8,29h13.37v62.98h-13.37v-62.98Z"></path>
    <path fill="#072061" d="m420.14,181.16h13.14v10.08h.23c4.76-8.27,12.35-11.89,20.39-11.89,11.44,0,22.32,7.36,22.32,25.15v39.65h-13.48v-33.76c0-10.42-3.85-18.35-13.48-18.35-9.06,0-15.75,7.02-15.75,18.8v33.3h-13.37v-62.98Z"></path>
    <path fill="#072061" d="m496.32,152.16c4.87,0,8.61,3.96,8.61,8.61,0,4.98-3.74,8.95-8.61,8.95s-8.84-3.96-8.84-8.95c0-4.64,3.74-8.61,8.84-8.61Zm-6.8,29h13.37v62.98h-13.37v-62.98Z"></path>
    <path fill="#072061" d="m512.54,212.77c0-20.39,13.71-33.42,32.06-33.42,12.8,0,24.13,6.57,28.77,19.14l-12.69,5.1c-2.72-7.82-8.95-11.55-16.2-11.55-10.87,0-17.9,8.95-17.9,20.62,0,12.69,8.04,20.73,18.46,20.73,8.16,0,14.5-4.87,17.67-12.8l12.46,4.87c-4.53,13.03-15.97,20.62-30.24,20.62-18.58,0-32.4-12.91-32.4-33.3Z"></path>
    <path fill="#072061" d="m580.75,228.28c0-11.89,9.74-16.65,21.07-19.03,13.37-2.83,19.03-3.29,19.03-9.18,0-5.32-4.53-9.74-11.78-9.74-6.34,0-11.55,3.62-13.71,10.99l-12.57-4.3c3.85-12.8,15.18-17.67,26.96-17.67,14.27,0,24.81,7.14,24.81,21.98v23.11c0,10.42.79,14.73,2.04,19.71h-13.48c-.91-3.17-1.25-6.12-1.25-9.74h-.23c-3.51,7.02-10.87,11.67-20.05,11.67-10.76,0-20.84-5.78-20.84-17.78Zm24.47,7.36c9.74,0,15.74-8.61,15.74-15.63v-6.12c-3.28,1.7-8.16,3.06-13.03,4.08-5.66,1.25-12.46,3.74-12.46,9.86,0,4.98,3.97,7.81,9.74,7.81Z"></path>
    <path fill="#072061" d="m647.98,153.52h13.37v90.62h-13.37v-90.62Z"></path>
    <path fill="#072061" d="m707.8,155.79h33.19c8.84,0,30.13,4.53,30.13,27.75,0,16.31-9.74,24.69-20.73,26.85v.11l22.54,33.64h-16.08l-21.64-32.62h-13.14v32.62h-14.27v-88.35Zm30.81,43.05c8.27,0,17.56-3.74,17.56-14.95s-9.4-15.18-17.67-15.18h-16.42v30.13h16.54Z"></path>
    <path fill="#072061" d="m776.9,212.88c0-19.37,13.03-33.53,31.38-33.53,14.61,0,29.9,9.18,29.9,32.96v3.97h-47.69c1.02,11.21,8.84,17.78,18.69,17.78,7.82,0,13.93-4.64,16.88-11.89l12.57,4.98c-4.3,11.1-15.18,18.92-29.45,18.92-18.46,0-32.28-13.14-32.28-33.19Zm47.69-6.23c-.91-11.44-8.61-15.75-16.43-15.75-9.29,0-15.4,6.46-16.99,15.75h33.42Z"></path>
    <path fill="#072061" d="m844.51,228.4l12.46-4.08c2.95,7.36,9.06,10.65,14.5,10.65,4.19,0,9.97-1.81,9.97-7.59,0-5.32-5.21-6.91-10.08-8.38l-6.57-1.92c-7.25-2.15-17.33-6.68-17.33-18.58s10.42-19.14,22.88-19.14,20.84,6.8,23.56,15.75l-12.46,4.08c-1.7-4.64-5.32-8.84-11.67-8.84-5.1,0-8.84,2.83-8.84,7.14,0,5.66,6.8,7.81,12.12,9.29l5.21,1.47c6.23,1.81,17.45,5.1,17.45,17.78,0,11.89-9.52,20.05-24.13,20.05-13.82,0-23.9-7.14-27.07-17.67Z"></path>
    <path fill="#072061" d="m901.43,212.88c0-19.37,13.03-33.53,31.38-33.53,14.61,0,29.9,9.18,29.9,32.96v3.97h-47.69c1.02,11.21,8.84,17.78,18.69,17.78,7.82,0,13.93-4.64,16.88-11.89l12.57,4.98c-4.3,11.1-15.18,18.92-29.45,18.92-18.46,0-32.28-13.14-32.28-33.19Zm47.69-6.23c-.91-11.44-8.61-15.75-16.43-15.75-9.29,0-15.4,6.46-16.99,15.75h33.42Z"></path>
    <path fill="#072061" d="m969.66,228.28c0-11.89,9.74-16.65,21.07-19.03,13.37-2.83,19.03-3.29,19.03-9.18,0-5.32-4.53-9.74-11.78-9.74-6.34,0-11.55,3.62-13.71,10.99l-12.57-4.3c3.85-12.8,15.18-17.67,26.96-17.67,14.27,0,24.81,7.14,24.81,21.98v23.11c0,10.42.79,14.73,2.04,19.71h-13.48c-.91-3.17-1.25-6.12-1.25-9.74h-.23c-3.51,7.02-10.87,11.67-20.05,11.67-10.76,0-20.84-5.78-20.84-17.78Zm24.47,7.36c9.74,0,15.74-8.61,15.74-15.63v-6.12c-3.28,1.7-8.16,3.06-13.03,4.08-5.66,1.25-12.46,3.74-12.46,9.86,0,4.98,3.97,7.81,9.74,7.81Z"></path>
    <path fill="#072061" d="m1036.95,181.16h13.14v10.65h.45c3.17-6.91,9.86-12.46,18.58-12.46,2.04,0,4.08.23,6.34,1.13v14.95c-2.38-.91-5.66-1.25-7.7-1.25-14.27,0-17.44,13.48-17.44,23.79v26.17h-13.37v-62.98Z"></path>
    <path fill="#072061" d="m1078.8,212.77c0-20.39,13.71-33.42,32.06-33.42,12.8,0,24.13,6.57,28.77,19.14l-12.69,5.1c-2.72-7.82-8.95-11.55-16.2-11.55-10.87,0-17.9,8.95-17.9,20.62,0,12.69,8.04,20.73,18.46,20.73,8.16,0,14.5-4.87,17.67-12.8l12.46,4.87c-4.53,13.03-15.97,20.62-30.24,20.62-18.58,0-32.4-12.91-32.4-33.3Z"></path>
    <path fill="#072061" d="m1149.53,153.52h13.37v37.72h.23c4.76-8.27,12.12-11.89,20.16-11.89,11.44,0,22.32,7.36,22.32,25.15v39.65h-13.48v-33.76c0-10.42-3.85-18.35-13.48-18.35-9.06,0-15.75,7.14-15.75,18.8v33.3h-13.37v-90.62Z"></path>
    <path fill="#FF9933" d="m1248.42,155.79h31.04c15.97,0,29,9.29,29,26.17,0,18.01-13.59,27.07-27.18,27.07h-24.69v35.11h-8.16v-88.35Zm30.36,45.65c12.8,0,21.18-6.57,21.18-19.03s-9.17-19.26-21.97-19.26h-21.41v38.29h22.2Z"></path>
    <path fill="#FF9933" d="m1318.58,153.52h7.59v40.1h.23c4.98-9.74,12.91-13.82,21.75-13.82,11.1,0,22.88,6.23,22.88,25.15v39.19h-7.59v-35.79c0-15.63-8.04-21.52-17.22-21.52-12.8,0-20.05,11.44-20.05,22.43v34.89h-7.59v-90.62Z"></path>
    <path fill="#FF9933" d="m1390.6,153.07c3.51,0,6.23,2.83,6.23,6.23,0,3.62-2.72,6.46-6.23,6.46-3.74,0-6.46-2.83-6.46-6.46,0-3.4,2.72-6.23,6.46-6.23Zm-3.96,28.55h7.59v62.53h-7.59v-62.53Z"></path>
    <path fill="#FF9933" d="m1410.49,153.52h7.59v90.62h-7.59v-90.62Z"></path>
    <path fill="#FF9933" d="m1430.2,229.76c0-11.78,10.65-16.65,22.54-19.14,11.55-2.38,19.82-2.61,19.82-10.65,0-7.02-6.23-13.59-15.86-13.59-8.38,0-14.5,5.1-16.99,13.14l-7.36-2.6c3.74-12.01,14.5-17.11,24.92-17.11,11.33,0,23.22,6,23.22,20.84v23.9c0,10.42.79,14.73,2.04,19.6h-7.7c-1.13-4.42-1.47-8.16-1.47-13.03h-.23c-3.97,8.5-11.67,14.95-23.11,14.95-10.65,0-19.82-5.32-19.82-16.31Zm21.18,10.08c13.14,0,21.29-12.35,21.29-20.73v-8.49c-3.51,2.72-6.46,3.74-14.84,5.32-7.25,1.36-19.37,3.97-19.37,13.48,0,6.34,4.98,10.42,12.91,10.42Z"></path>
    <path fill="#FF9933" d="m1492.07,212.99c0-19.94,12.8-33.19,29.11-33.19,9.86,0,18.46,4.98,23.45,14.27h.23v-40.55h7.59v71.02c0,10.53.79,14.73,2.04,19.6h-7.7c-1.13-4.53-1.59-8.38-1.47-12.57h-.23c-5.1,9.51-14.16,14.5-24.01,14.5-16.76,0-29-13.71-29-33.08Zm30.13,26.05c12.46,0,22.77-10.76,22.77-26.17s-10.31-26.05-22.77-26.05-22.09,11.1-22.09,26.17,9.4,26.05,22.09,26.05Z"></path>
    <path fill="#FF9933" d="m1564.73,212.99c0-19.48,12.8-33.19,30.7-33.19,11.89,0,28.54,6.34,28.54,31.38v3.51h-51.09c.34,15.07,9.86,24.35,22.99,24.35,10.76,0,18.24-7.02,21.75-15.75l7.25,2.61c-4.76,12.8-15.86,20.16-29.34,20.16-17.67,0-30.81-13.25-30.81-33.08Zm50.97-6c-.34-14.84-10.99-19.94-20.5-19.94-11.89,0-20.16,8.27-21.86,19.94h42.36Z"></path>
    <path fill="#FF9933" d="m1636.94,153.52h7.59v90.62h-7.59v-90.62Z"></path>
    <path fill="#FF9933" d="m1660.61,181.62h7.36v13.14h.23c5.44-10.08,14.39-14.95,24.13-14.95,16.54,0,28.77,13.82,28.77,33.08s-12.8,33.19-29,33.19c-10.53,0-19.26-5.55-23.9-14.61v37.61h-7.59v-87.45Zm30.24,57.43c12.8,0,22.09-11.1,22.09-26.17s-9.4-26.05-22.09-26.05-22.66,10.65-22.66,26.17,10.31,26.05,22.66,26.05Z"></path>
    <path fill="#FF9933" d="m1733.62,153.52h7.59v40.1h.23c4.98-9.74,12.91-13.82,21.75-13.82,11.1,0,22.88,6.23,22.88,25.15v39.19h-7.59v-35.79c0-15.63-8.04-21.52-17.22-21.52-12.8,0-20.05,11.44-20.05,22.43v34.89h-7.59v-90.62Z"></path>
    <path fill="#FF9933" d="m1805.64,153.07c3.51,0,6.23,2.83,6.23,6.23,0,3.62-2.72,6.46-6.23,6.46-3.74,0-6.46-2.83-6.46-6.46,0-3.4,2.72-6.23,6.46-6.23Zm-3.96,28.55h7.59v62.53h-7.59v-62.53Z"></path>
    <path fill="#FF9933" d="m1821.09,229.76c0-11.78,10.65-16.65,22.54-19.14,11.55-2.38,19.82-2.61,19.82-10.65,0-7.02-6.23-13.59-15.86-13.59-8.38,0-14.5,5.1-16.99,13.14l-7.36-2.6c3.74-12.01,14.5-17.11,24.92-17.11,11.33,0,23.22,6,23.22,20.84v23.9c0,10.42.79,14.73,2.04,19.6h-7.7c-1.13-4.42-1.47-8.16-1.47-13.03h-.23c-3.97,8.5-11.67,14.95-23.11,14.95-10.65,0-19.82-5.32-19.82-16.31Zm21.18,10.08c13.14,0,21.29-12.35,21.29-20.73v-8.49c-3.51,2.72-6.46,3.74-14.84,5.32-7.25,1.36-19.37,3.97-19.37,13.48,0,6.34,4.98,10.42,12.91,10.42Z"></path>
  </g>
  <g>
    <path fill="#1843AD" d="m139.23,240.05c-.71-.71-1.86-.71-2.58,0l-24.99,25.04c-8.43,8.43-20.98,10.16-31.17,5.32l14.2-14.2h0s4.03-4.03,4.03-4.03l-1.21-1.21s-.06-.08-.1-.12l-10.31-10.29s-.01-.01-.02-.02l-1.3-1.3-4.03,4.03h0s-14.3,14.31-14.3,14.31c-.55-1.08-1.01-2.21-1.35-3.38-3.11-10.33-.38-20.75,6.76-27.89l13.39-13.39,11.56-11.56c.73-.73.73-1.92,0-2.65l-11.61-11.61-3.77,3.77-9.12,9.12-9.16,9.16-4.24,4.24c-8.9,8.92-13.36,20.62-13.36,32.32s4.46,23.4,13.38,32.32c17.84,17.84,46.78,17.84,64.62,0l26.32-26.3-11.66-11.66Z"></path>
    <g>
      <g>
        <circle fill="#1843AD" cx="105.64" cy="232.31" r="11.64"></circle>
        <circle fill="#FF9933" cx="170.27" cy="232.31" r="11.64"></circle>
        <g>
          <path fill="#A2DCEB" d="m215.97,186.62c17.64-17.64,17.84-46.12.62-64-17.77-18.46-47.86-18.02-65.97.09l-25.57,25.57,11.61,11.61c.73.73,1.9.73,2.63,0l24.42-24.42c8.5-8.5,21.35-10.73,31.73-5.89l-18.29,18.31,12.96,12.89,18.28-18.28c4.84,10.18,3.07,22.76-5.34,31.18l-24.99,24.99c-.42.68-.66,1.92.07,2.63l11.61,11.61,26.23-26.3Z"></path>
          <circle fill="#A2DCEB" cx="170.27" cy="167.68" r="11.64"></circle>
        </g>
        <circle fill="#072061" cx="105.64" cy="167.68" r="11.64"></circle>
      </g>
      <g>
        <path fill="#072061" d="m72.88,173.68c-7.15-7.15-9.87-17.55-6.76-27.88.35-1.17.8-2.3,1.37-3.4l18.32,18.32,12.92-12.92-18.22-18.22c10.18-4.83,22.74-3.09,31.15,5.34l24.99,24.99c.73.73,1.92.73,2.63,0l11.61-11.61,13.38-13.4h0c-7.13-7.13-18.7-7.13-25.83.02l-.46.46-13.38-13.38c-17.84-17.84-46.78-17.84-64.62,0-8.94,8.92-13.4,20.6-13.4,32.3s4.46,23.4,13.38,32.32l13.38,13.37,9.12-9.12,3.77-3.77-13.34-13.41Z"></path>
        <path fill="#FF9933" d="m151.33,277.97c17.84,17.84,46.78,17.84,64.62,0,8.94-8.92,13.4-20.6,13.4-32.3,0-11.7-4.46-23.4-13.38-32.32l-26.32-26.3-11.57,11.57c-.73.73-.73,1.9,0,2.63l24.97,25.02c7.15,7.15,9.87,17.55,6.76,27.88-.35,1.17-.8,2.3-1.37,3.4l-18.32-18.32-12.92,12.92,18.22,18.22c-10.18,4.83-22.74,3.09-31.15-5.34l-24.99-24.99c-.73-.73-1.92-.73-2.63,0l-11.61,11.61-13.38,13.4h0c7.13,7.13,18.7,7.13,25.83-.02l.46-.46,13.38,13.38Z"></path>
      </g>
    </g>
  </g>
</svg>